<mxfile host="app.diagrams.net" modified="2021-08-12T08:29:03.857Z" agent="5.0 (Windows NT 10.0; Win64; x64) AppleWebKit/537.36 (KHTML, like Gecko) Chrome/90.0.4430.93 Safari/537.36" etag="iDBRUh68L7oz80Detv7O" version="14.9.5" type="github">
  <diagram id="RjFS8rIJIMFTCRplgAGE" name="Page-1">
    <mxGraphModel dx="1562" dy="944" grid="1" gridSize="10" guides="1" tooltips="1" connect="1" arrows="1" fold="1" page="1" pageScale="1" pageWidth="827" pageHeight="1169" math="0" shadow="0">
      <root>
        <mxCell id="0" />
        <mxCell id="1" parent="0" />
        <mxCell id="w9G3qUtUXkam-rj9f5gv-1" value="&lt;div style=&quot;text-align: justify&quot;&gt;&lt;font style=&quot;font-size: 14px&quot;&gt;Activity#&lt;/font&gt;&lt;span style=&quot;font-size: 14px&quot;&gt;setOnExitAnimationListener&lt;/span&gt;&lt;/div&gt;" style="rounded=1;whiteSpace=wrap;html=1;fillColor=#dae8fc;strokeColor=#6c8ebf;" vertex="1" parent="1">
          <mxGeometry x="253" y="80" width="270" height="60" as="geometry" />
        </mxCell>
        <mxCell id="w9G3qUtUXkam-rj9f5gv-2" value="Impl31#&lt;span style=&quot;font-size: 14px ; text-align: justify&quot;&gt;setOnExitAnimationListener&lt;/span&gt;" style="rounded=1;whiteSpace=wrap;html=1;fillColor=#dae8fc;strokeColor=#6c8ebf;" vertex="1" parent="1">
          <mxGeometry x="99" y="270" width="240" height="60" as="geometry" />
        </mxCell>
        <mxCell id="w9G3qUtUXkam-rj9f5gv-3" value="Android 12?" style="rhombus;whiteSpace=wrap;html=1;fillColor=#f8cecc;strokeColor=#b85450;" vertex="1" parent="1">
          <mxGeometry x="332" y="180" width="110" height="80" as="geometry" />
        </mxCell>
        <mxCell id="w9G3qUtUXkam-rj9f5gv-4" value="" style="endArrow=classic;html=1;" edge="1" parent="1">
          <mxGeometry width="50" height="50" relative="1" as="geometry">
            <mxPoint x="387" y="140" as="sourcePoint" />
            <mxPoint x="386.5799999999999" y="180" as="targetPoint" />
          </mxGeometry>
        </mxCell>
        <mxCell id="w9G3qUtUXkam-rj9f5gv-5" value="Y" style="text;html=1;strokeColor=none;fillColor=none;align=center;verticalAlign=middle;whiteSpace=wrap;rounded=0;" vertex="1" parent="1">
          <mxGeometry x="284.5" y="190" width="40" height="20" as="geometry" />
        </mxCell>
        <mxCell id="w9G3qUtUXkam-rj9f5gv-6" value="N" style="text;html=1;strokeColor=none;fillColor=none;align=center;verticalAlign=middle;whiteSpace=wrap;rounded=0;" vertex="1" parent="1">
          <mxGeometry x="440.5" y="190" width="40" height="20" as="geometry" />
        </mxCell>
        <mxCell id="w9G3qUtUXkam-rj9f5gv-7" value="Impl#&lt;span style=&quot;font-size: 14px ; text-align: justify&quot;&gt;setOnExitAnimationListener&lt;/span&gt;" style="rounded=1;whiteSpace=wrap;html=1;fillColor=#dae8fc;strokeColor=#6c8ebf;" vertex="1" parent="1">
          <mxGeometry x="432" y="370" width="230" height="60" as="geometry" />
        </mxCell>
        <mxCell id="w9G3qUtUXkam-rj9f5gv-8" value="Activity#getSplashScreen" style="rounded=1;whiteSpace=wrap;html=1;fillColor=#d5e8d4;strokeColor=#82b366;" vertex="1" parent="1">
          <mxGeometry x="126.5" y="370" width="185" height="60" as="geometry" />
        </mxCell>
        <mxCell id="w9G3qUtUXkam-rj9f5gv-9" value="android.window.SplashScreen&lt;br&gt;#setOnExitAnimationListener" style="rounded=1;whiteSpace=wrap;html=1;fillColor=#d5e8d4;strokeColor=#82b366;" vertex="1" parent="1">
          <mxGeometry x="131" y="470" width="185" height="60" as="geometry" />
        </mxCell>
        <mxCell id="w9G3qUtUXkam-rj9f5gv-10" value="" style="endArrow=classic;html=1;exitX=0;exitY=0.5;exitDx=0;exitDy=0;entryX=0.5;entryY=0;entryDx=0;entryDy=0;" edge="1" parent="1" source="w9G3qUtUXkam-rj9f5gv-3" target="w9G3qUtUXkam-rj9f5gv-2">
          <mxGeometry width="50" height="50" relative="1" as="geometry">
            <mxPoint x="642" y="195" as="sourcePoint" />
            <mxPoint x="219" y="268" as="targetPoint" />
            <Array as="points">
              <mxPoint x="219" y="220" />
            </Array>
          </mxGeometry>
        </mxCell>
        <mxCell id="w9G3qUtUXkam-rj9f5gv-12" value="" style="endArrow=classic;html=1;entryX=1;entryY=0.5;entryDx=0;entryDy=0;" edge="1" parent="1" target="w9G3qUtUXkam-rj9f5gv-14">
          <mxGeometry width="50" height="50" relative="1" as="geometry">
            <mxPoint x="547" y="430" as="sourcePoint" />
            <mxPoint x="598.5" y="425" as="targetPoint" />
            <Array as="points">
              <mxPoint x="547" y="580" />
            </Array>
          </mxGeometry>
        </mxCell>
        <mxCell id="w9G3qUtUXkam-rj9f5gv-14" value="&lt;span style=&quot;color: rgb(0 , 0 , 0)&quot;&gt;SplashScreenViewProvider&lt;br&gt;#&lt;/span&gt;&lt;span style=&quot;color: rgb(0 , 0 , 0)&quot;&gt;SplashScreenViewProvider()&lt;/span&gt;" style="rounded=1;whiteSpace=wrap;html=1;fillColor=#dae8fc;strokeColor=#6c8ebf;" vertex="1" parent="1">
          <mxGeometry x="295.5" y="550" width="185" height="60" as="geometry" />
        </mxCell>
        <mxCell id="w9G3qUtUXkam-rj9f5gv-16" value="" style="endArrow=classic;html=1;exitX=1;exitY=0.5;exitDx=0;exitDy=0;entryX=0.5;entryY=0;entryDx=0;entryDy=0;" edge="1" parent="1" source="w9G3qUtUXkam-rj9f5gv-3" target="w9G3qUtUXkam-rj9f5gv-7">
          <mxGeometry width="50" height="50" relative="1" as="geometry">
            <mxPoint x="575" y="220" as="sourcePoint" />
            <mxPoint x="463" y="300" as="targetPoint" />
            <Array as="points">
              <mxPoint x="546" y="220" />
            </Array>
          </mxGeometry>
        </mxCell>
        <mxCell id="w9G3qUtUXkam-rj9f5gv-17" value="Android 12?" style="rhombus;whiteSpace=wrap;html=1;fillColor=#f8cecc;strokeColor=#b85450;" vertex="1" parent="1">
          <mxGeometry x="333" y="650" width="110" height="80" as="geometry" />
        </mxCell>
        <mxCell id="w9G3qUtUXkam-rj9f5gv-19" value="N" style="text;html=1;strokeColor=none;fillColor=none;align=center;verticalAlign=middle;whiteSpace=wrap;rounded=0;" vertex="1" parent="1">
          <mxGeometry x="454.5" y="660" width="40" height="20" as="geometry" />
        </mxCell>
        <mxCell id="w9G3qUtUXkam-rj9f5gv-20" value="ViewImpl31#ViewImpl31()" style="rounded=1;whiteSpace=wrap;html=1;fillColor=#dae8fc;strokeColor=#6c8ebf;" vertex="1" parent="1">
          <mxGeometry x="127.5" y="1040" width="185" height="60" as="geometry" />
        </mxCell>
        <mxCell id="w9G3qUtUXkam-rj9f5gv-21" value="OnExitAnimationListener&lt;br&gt;#onSplashScreenExit" style="rounded=1;whiteSpace=wrap;html=1;fillColor=#dae8fc;strokeColor=#6c8ebf;" vertex="1" parent="1">
          <mxGeometry x="295.5" y="1440" width="185" height="60" as="geometry" />
        </mxCell>
        <mxCell id="w9G3qUtUXkam-rj9f5gv-24" value="End" style="ellipse;whiteSpace=wrap;html=1;fillColor=#bac8d3;strokeColor=#23445d;" vertex="1" parent="1">
          <mxGeometry x="318" y="1550" width="120" height="50" as="geometry" />
        </mxCell>
        <mxCell id="w9G3qUtUXkam-rj9f5gv-25" value="" style="endArrow=classic;html=1;exitX=0.5;exitY=1;exitDx=0;exitDy=0;" edge="1" parent="1">
          <mxGeometry width="50" height="50" relative="1" as="geometry">
            <mxPoint x="377.5" y="1500" as="sourcePoint" />
            <mxPoint x="377.5" y="1550" as="targetPoint" />
          </mxGeometry>
        </mxCell>
        <mxCell id="w9G3qUtUXkam-rj9f5gv-27" value="Y" style="text;html=1;strokeColor=none;fillColor=none;align=center;verticalAlign=middle;whiteSpace=wrap;rounded=0;" vertex="1" parent="1">
          <mxGeometry x="278" y="660" width="40" height="20" as="geometry" />
        </mxCell>
        <mxCell id="w9G3qUtUXkam-rj9f5gv-29" value="" style="endArrow=classic;html=1;entryX=0;entryY=0.5;entryDx=0;entryDy=0;" edge="1" parent="1">
          <mxGeometry width="50" height="50" relative="1" as="geometry">
            <mxPoint x="220" y="530" as="sourcePoint" />
            <mxPoint x="295.5" y="579" as="targetPoint" />
            <Array as="points">
              <mxPoint x="220" y="579" />
            </Array>
          </mxGeometry>
        </mxCell>
        <mxCell id="w9G3qUtUXkam-rj9f5gv-32" value="ViewImpl#ViewImpl()" style="rounded=1;whiteSpace=wrap;html=1;fillColor=#dae8fc;strokeColor=#6c8ebf;" vertex="1" parent="1">
          <mxGeometry x="454.5" y="740" width="185" height="60" as="geometry" />
        </mxCell>
        <mxCell id="w9G3qUtUXkam-rj9f5gv-33" value="View#&lt;br&gt;inflate &amp;amp; addView" style="rounded=1;whiteSpace=wrap;html=1;fillColor=#f5f5f5;strokeColor=#666666;fontColor=#333333;" vertex="1" parent="1">
          <mxGeometry x="454.5" y="840" width="185" height="60" as="geometry" />
        </mxCell>
        <mxCell id="w9G3qUtUXkam-rj9f5gv-34" value="View#setBackground&lt;br&gt;&amp;amp;&amp;nbsp;setBackgroundResource" style="rounded=1;whiteSpace=wrap;html=1;fillColor=#f5f5f5;strokeColor=#666666;fontColor=#333333;" vertex="1" parent="1">
          <mxGeometry x="454.5" y="940" width="185" height="60" as="geometry" />
        </mxCell>
        <mxCell id="w9G3qUtUXkam-rj9f5gv-35" value="addOnLayoutChangeListener" style="rounded=1;whiteSpace=wrap;html=1;fillColor=#f5f5f5;strokeColor=#666666;fontColor=#333333;" vertex="1" parent="1">
          <mxGeometry x="454.5" y="1040" width="185" height="60" as="geometry" />
        </mxCell>
        <mxCell id="w9G3qUtUXkam-rj9f5gv-51" value="" style="edgeStyle=orthogonalEdgeStyle;rounded=0;orthogonalLoop=1;jettySize=auto;html=1;" edge="1" parent="1" source="w9G3qUtUXkam-rj9f5gv-36" target="w9G3qUtUXkam-rj9f5gv-37">
          <mxGeometry relative="1" as="geometry" />
        </mxCell>
        <mxCell id="w9G3qUtUXkam-rj9f5gv-36" value="adjustInsets" style="rounded=1;whiteSpace=wrap;html=1;fillColor=#dae8fc;strokeColor=#6c8ebf;" vertex="1" parent="1">
          <mxGeometry x="454.5" y="1140" width="185" height="60" as="geometry" />
        </mxCell>
        <mxCell id="w9G3qUtUXkam-rj9f5gv-52" value="" style="edgeStyle=orthogonalEdgeStyle;rounded=0;orthogonalLoop=1;jettySize=auto;html=1;" edge="1" parent="1" source="w9G3qUtUXkam-rj9f5gv-37" target="w9G3qUtUXkam-rj9f5gv-38">
          <mxGeometry relative="1" as="geometry" />
        </mxCell>
        <mxCell id="w9G3qUtUXkam-rj9f5gv-37" value="KeepOnScreenCondition&lt;br&gt;#shouldKeepOnScreen" style="rounded=1;whiteSpace=wrap;html=1;fillColor=#dae8fc;strokeColor=#6c8ebf;" vertex="1" parent="1">
          <mxGeometry x="454.5" y="1240" width="185" height="60" as="geometry" />
        </mxCell>
        <mxCell id="w9G3qUtUXkam-rj9f5gv-38" value="dispatchOnExitAnimation" style="rounded=1;whiteSpace=wrap;html=1;fillColor=#dae8fc;strokeColor=#6c8ebf;" vertex="1" parent="1">
          <mxGeometry x="454.5" y="1340" width="185" height="60" as="geometry" />
        </mxCell>
        <mxCell id="w9G3qUtUXkam-rj9f5gv-39" value="" style="endArrow=classic;html=1;" edge="1" parent="1">
          <mxGeometry width="50" height="50" relative="1" as="geometry">
            <mxPoint x="220.08" y="330" as="sourcePoint" />
            <mxPoint x="219.65999999999994" y="370" as="targetPoint" />
          </mxGeometry>
        </mxCell>
        <mxCell id="w9G3qUtUXkam-rj9f5gv-41" value="" style="endArrow=classic;html=1;" edge="1" parent="1">
          <mxGeometry width="50" height="50" relative="1" as="geometry">
            <mxPoint x="220.07999999999993" y="430" as="sourcePoint" />
            <mxPoint x="219.65999999999985" y="470" as="targetPoint" />
          </mxGeometry>
        </mxCell>
        <mxCell id="w9G3qUtUXkam-rj9f5gv-42" value="" style="endArrow=classic;html=1;" edge="1" parent="1">
          <mxGeometry width="50" height="50" relative="1" as="geometry">
            <mxPoint x="388.0799999999999" y="610" as="sourcePoint" />
            <mxPoint x="388" y="650" as="targetPoint" />
            <Array as="points">
              <mxPoint x="388" y="640" />
            </Array>
          </mxGeometry>
        </mxCell>
        <mxCell id="w9G3qUtUXkam-rj9f5gv-44" value="" style="endArrow=classic;html=1;exitX=0;exitY=0.5;exitDx=0;exitDy=0;" edge="1" parent="1" target="w9G3qUtUXkam-rj9f5gv-20">
          <mxGeometry width="50" height="50" relative="1" as="geometry">
            <mxPoint x="334" y="690" as="sourcePoint" />
            <mxPoint x="222" y="740" as="targetPoint" />
            <Array as="points">
              <mxPoint x="221" y="690" />
            </Array>
          </mxGeometry>
        </mxCell>
        <mxCell id="w9G3qUtUXkam-rj9f5gv-45" value="" style="endArrow=classic;html=1;exitX=1;exitY=0.5;exitDx=0;exitDy=0;entryX=0.5;entryY=0;entryDx=0;entryDy=0;" edge="1" parent="1">
          <mxGeometry width="50" height="50" relative="1" as="geometry">
            <mxPoint x="444" y="690" as="sourcePoint" />
            <mxPoint x="547" y="740" as="targetPoint" />
            <Array as="points">
              <mxPoint x="548" y="690" />
            </Array>
          </mxGeometry>
        </mxCell>
        <mxCell id="w9G3qUtUXkam-rj9f5gv-46" value="" style="endArrow=classic;html=1;" edge="1" parent="1">
          <mxGeometry width="50" height="50" relative="1" as="geometry">
            <mxPoint x="547.0799999999999" y="800" as="sourcePoint" />
            <mxPoint x="546.6599999999999" y="840" as="targetPoint" />
          </mxGeometry>
        </mxCell>
        <mxCell id="w9G3qUtUXkam-rj9f5gv-48" value="" style="endArrow=classic;html=1;" edge="1" parent="1">
          <mxGeometry width="50" height="50" relative="1" as="geometry">
            <mxPoint x="547.0799999999999" y="900" as="sourcePoint" />
            <mxPoint x="546.6599999999999" y="940" as="targetPoint" />
          </mxGeometry>
        </mxCell>
        <mxCell id="w9G3qUtUXkam-rj9f5gv-49" value="" style="endArrow=classic;html=1;" edge="1" parent="1">
          <mxGeometry width="50" height="50" relative="1" as="geometry">
            <mxPoint x="547.0799999999999" y="1000" as="sourcePoint" />
            <mxPoint x="546.6599999999999" y="1040" as="targetPoint" />
          </mxGeometry>
        </mxCell>
        <mxCell id="w9G3qUtUXkam-rj9f5gv-50" value="" style="endArrow=classic;html=1;" edge="1" parent="1">
          <mxGeometry width="50" height="50" relative="1" as="geometry">
            <mxPoint x="547.0799999999999" y="1100" as="sourcePoint" />
            <mxPoint x="546.6599999999999" y="1140" as="targetPoint" />
          </mxGeometry>
        </mxCell>
        <mxCell id="w9G3qUtUXkam-rj9f5gv-55" value="" style="endArrow=classic;html=1;entryX=0;entryY=0.5;entryDx=0;entryDy=0;" edge="1" parent="1" target="w9G3qUtUXkam-rj9f5gv-21">
          <mxGeometry width="50" height="50" relative="1" as="geometry">
            <mxPoint x="220" y="1099" as="sourcePoint" />
            <mxPoint x="292" y="1469" as="targetPoint" />
            <Array as="points">
              <mxPoint x="220" y="1470" />
            </Array>
          </mxGeometry>
        </mxCell>
        <mxCell id="w9G3qUtUXkam-rj9f5gv-56" value="" style="endArrow=classic;html=1;exitX=0.5;exitY=1;exitDx=0;exitDy=0;entryX=1;entryY=0.5;entryDx=0;entryDy=0;" edge="1" parent="1" source="w9G3qUtUXkam-rj9f5gv-38">
          <mxGeometry width="50" height="50" relative="1" as="geometry">
            <mxPoint x="546" y="1220" as="sourcePoint" />
            <mxPoint x="480.5" y="1470" as="targetPoint" />
            <Array as="points">
              <mxPoint x="547" y="1470" />
            </Array>
          </mxGeometry>
        </mxCell>
      </root>
    </mxGraphModel>
  </diagram>
</mxfile>
